<?xml version="1.0" encoding="UTF-8"?>
<svg version="1.1" viewBox="0 0 2000 2000" width="500" height="500" xmlns="http://www.w3.org/2000/svg">
<path transform="translate(979,362)" d="m0 0h35l31 2 28 3 36 6 30 6 31 9 36 12 10 4 1 2-26 7-43 10-35 10-48 16-28 11-29 14-22 12-34 18-19 11-15 9-29 16-27 14-16 8-17 8-28 11-21 6-20 4-14 2 2 1h27l21-3 28-7 25-10 26-12 15-8 38-19 16-9 16-8 15-8 40-20 33-15 24-10 48-17 33-10 48-12 32-5 44-4h67l24 2 22 4 17 5 16 7 16 9 14 11 10 9 8 8 11 14 12 18 9 16 13 28 9 25 13 45 8 39 4 28v11l-7 3-60 14-25 6-17 5-28 10-26 10-43 19-24 12-23 13-26 14-23 13-25 14-21 12-17 9-14 8-27 14-19 10-31 15-30 13-28 12-27 10-30 11-30 9-41 11-39 8-35 5-31 3-20 1h-32l-27-1-30-3-26-4-28-7-19-7-21-11-11-8-5-5-8-9-7-14-4-15-1-19 5-45 7-46 7-36 11-48 12-45 13-41 10-27 11-25 8-16 14-24 10-14 10-13 12-14 20-20 8-7 16-13 17-12 16-10 22-12 21-10 26-10 28-9 29-7 38-7 27-3z" fill="#D6BCA4"/>
<path transform="translate(539,880)" d="m0 0 3 1-5 39-1 10v68l2 63 2 14 4 12 10 14 8 8 18 13 14 8 31 14 16 6 24 7 36 8 36 6 40 5 43 3 21 1 52 1h52l52-2 70-5 45-4 29-5 58-11 43-8 56-12 26-7 46-15 36-10 37-11 16-5 15-7h-9l-23 5-56 14-40 12-36 8-20 4-24 4-57 10-67 11-39 5-63 6-46 3-88 3 1-2 29-5 36-9 39-11 36-10 50-15 18-6 23-9 35-12 30-11 17-6 35-14 30-11 37-15 30-11 37-13 40-15 43-16 25-9 40-14 62-19 37-10 45-11 41-7 35-4h41l21 3 12 4 9 7 7 11 1 3v14l-5 14-7 11-11 12-9 10-8 8-8 7-12 11-11 9-19 14-22 15-22 14-13 8-25 14-42 21-28 13-31 15-25 11-37 16-43 17-19 9-11 5-49 17-72 24-80 26-33 10-18 6-49 13-27 7-64 16-42 10-57 13-63 14-66 13-51 9-76 11-50 5-50 3-27 1h-34l-48-2-43-4-41-6-23-5-23-6-30-10-26-12-21-11-12-8-17-12-11-9-10-9-8-7-11-11-9-11-9-12-9-15-5-10-5-16-1-6v-22l4-20 6-17 8-17 8-14 12-17 10-13 12-14 12-13 15-15 8-7 26-22 16-12 19-14 31-21 17-11 21-13 20-12 25-14 34-17 37-16 19-7z" fill="#D6BCA4"/>
<path transform="translate(1757,899)" d="m0 0h41l21 3 12 4 9 7 7 11 1 3v14l-5 14-7 11-11 12-9 10-8 8-8 7-12 11-11 9-19 14-22 15-22 14-13 8-21 12-6 1-20 5-1-2 5-2-1-2-6 2-5 4h-4v3 1l5-1-5 4-6 2-1 1-9 4-9 3-13 1-7 3-20 1-8-2-4-3-9-1-2-1-2 2-4-3-5 3-14 3-9-2-4-5-4-1-2 6-3 1-4-1h-2v2l-5 2v2l-9 1v-6l-1-2 2-5-4-7v-2l-4-1-10-12 4-3h-9l-23 5-56 14-40 12-36 8-20 4-24 4-57 10-67 11-39 5-63 6-46 3-88 3 1-2 29-5 36-9 39-11 36-10 50-15 18-6 23-9 35-12 30-11 17-6 35-14 30-11 37-15 30-11 37-13 40-15 43-16 25-9 40-14 62-19 37-10 45-11 41-7z" fill="#E4D3C7"/>
<path transform="translate(1823,1185)" d="m0 0h16v1l-82 13-34 7-50 13-48 12-55 17-33 10-80 28-28 11-29 12-23 10-36 16-37 17-23 11-33 15-28 13-16 7-35 15-38 16-39 16-37 14-34 12-43 14-25 8-53 15-48 12-63 14-33 6-64 11-42 6-51 5-46 3-24 1h-88l-50-3-46-5-32-5-34-7-36-9-35-12-13-5-37-17-30-15-23-13-18-11-10-7-6-4 3-1 13 8 25 14 19 10 29 13 31 13 36 12 23 7 24 5 23 4 40 4 40 2h38l44-2 47-4 31-4 32-5 41-9 40-10 53-17 21-7 34-13 44-16 37-13 27-10 43-14 22-7 42-12 50-16 44-15 36-11 56-19 15-6 36-12 37-13 54-17 33-10 57-16 43-10 34-9 38-8 68-14 48-8 34-7 30-7 107-15z" fill="#9E7557"/>
<path transform="translate(1845,659)" d="m0 0h5l-4 2-53 8-39 7-48 11-31 8-36 11-36 12-22 9-25 11-28 11-29 13-21 10-16 9-14 7-10 6-39 19-19 10-20 12-13 8-20 12-27 15-15 10-22 13-19 12-56 33-25 15-24 14-25 14-14 8-23 13-33 17-16 8-21 9-33 14-29 9-37 9-36 6-31 4-24 2-22 1h-17l-33-2-30-4-29-5-23-6-30-10-20-9-26-14-14-10-6-6-1-3-1-12-1-41-1-19 4 2 9 10 14 11 11 7 23 11 19 7 36 9 32 5 20 2h68l36-3 39-5 37-7 30-7 58-17 33-11 36-14 49-21 27-12 16-7 25-12 26-12 23-11 26-12 31-15 23-11 30-13 28-13 30-13 15-7 23-10 26-11 30-12 32-13 34-13 50-17 38-12 64-16 31-6 64-8z" fill="#9E7557"/>
<path transform="translate(1771,788)" d="m0 0h21l35 1 37 3 34 4 39 6 25 5 7 3-2 4-9 10-14 10-16 8-14 6-27 9-24 6-43 8-39 6-35 4-89 9-64 9-46 8-42 9-36 9-36 10-105 33-29 10-30 11-44 14-36 10-36 12-28 10-35 11-24 6-27 6-7 1 3-2 22-8 26-11 35-15 19-9 23-10 16-8 31-14 23-11 24-11 35-16 28-14 36-16 45-22 25-11 19-8 36-15 30-13 29-11 36-12 43-12 36-9 33-6 33-4 23-2z" fill="#D6BCA4"/>
<path transform="translate(1554,945)" d="m0 0h4v2l-7 3-10 3-7 6-15 9h-3l-2 6-4 6h-7l-4 8-10 4-6 4-3 1-1 8h-3l-3 1-2 9h6 3v5l2 1-10 2 2 6-6 4-4 3 5 3-2 2-13 1-15 1-9 2v4l6 4h9l4 1v2l17-5 9-1 5 3 2 2-1 5-3 5-13 8-5 7-26 6-48 12-40 12-36 8-20 4-24 4-57 10-67 11-39 5-63 6-46 3-88 3 1-2 29-5 36-9 39-11 36-10 50-15 18-6 23-9 35-12 30-11 17-6 35-14 30-11 37-15 30-11 37-13 40-15 43-16 25-9 40-14z" fill="#D6BCA4"/>
<path transform="translate(1487,854)" d="m0 0h5l-1 4-13 10-4 3-7 3-9 1v5l-3 1v2h-2v2l8-2v7l5 3 4 1 11 1 2-2 12 2h29v2l9 1 2 1 13 1 16-1h6l2 2-3 2-37 7-52 12-44 12-114 36-31 11-34 12-39 12-32 9-33 11-28 10-35 11-24 6-27 6-7 1 3-2 22-8 26-11 35-15 19-9 23-10 16-8 31-14 23-11 24-11 35-16 28-14 36-16 45-22 25-11 19-8 36-15z" fill="#C1A189"/>
<path transform="translate(1362,419)" d="m0 0 11 1 17 3 17 5 16 7 16 9 14 11 10 9 8 8 11 14 12 18 9 16 13 28 5 13-1 6 1 10-3 3-3-4-2-7-4-4-2-1 1-5h-2l-4-9-2-1-1 4-4-1-4 3-2-1v-2h-2l-2-7 1-3 4-2-7-7h-2l-3 7-2 1-2-1v-2l-5-1-1 5 2 7-2 2-5-7v-2h-2l-4-7-2-5-10-5-4-4-2-5-1-3-7-1-3-3-7-3-8-6-9-2-8-4-9-3-7-1-4-3h-4v-2l-5-2-4-3-5-2-2-5-5-2-4-3v-2l-3-1-5-5-4-2-2-3-3-1 2-5 5-4 1-2 6 1v-3l9-3 1-2h2v-2h2v-2h9l-2-9h-2z" fill="#E3D2C6"/>
<path transform="translate(1410,732)" d="m0 0 4 1-36 15-36 16-22 11-23 13-26 14-23 13-25 14-21 12-17 9-14 8-27 14-19 10-31 15-30 13-28 12-27 10-30 11-30 9-41 11-39 8-35 5-31 3h-38v-1l7-1 26-2 34-4 11-2 23-4 20-5 16-5 12-3 7-3 17-5 17-6 10-4 27-10 17-6 12-6 15-6 16-8 21-10 7-1v-2l16-8 17-9 16-8 13-6h3v-2l10-5 14-8 16-8h3v-2l13-6h3v-2l8-4 18-10 17-8 13-7 7-3 17-8 28-13 19-8 22-9 51-17z" fill="#9F7558"/>
<path transform="translate(1429,723)" d="m0 0h10v2l-23 8h-6l-24 8-20 7-21 7-26 11-31 14-15 7-9 5-8 3-16 8-27 14-6 4h-3v2l-13 6h-3v2l-9 4-19 10-12 7h-3v2l-9 4-19 9-17 9-16 8-4 1v2l-11 4-20 9-16 8-23 10-10 4-40 15-20 7-14 5-11 3-9 3-18 5-15 4-17 4-21 3-12 2-33 4-18 1 11 1v1h-32l-27-1-22-2-3-2 6-1 10 1 11-1h30l33-2 33-3 13-3 14-2 31-7 36-10 26-8 29-11 16-6 15-6 12-5 17-8 20-9 16-8 23-11 17-9 16-7 22-12 23-12 15-8 19-10 16-8 25-13 20-9 17-9 19-8 9-4 20-9 20-8 34-12 28-9 17-4z" fill="#C1A189"/>
<path transform="translate(1442,984)" d="m0 0 2 2-4 5-10 6-7 2-2 2-3 5-2 1v2h-2l-6 12v10l-3 2-6-3v8l-10-2-10 3-5 2-3 5-3-1-1-2v-6l4-6h2v-2l5-1v-3h2l2-4 5-4 3-5 3-2 1-4h-2l-1-3 30-11z" fill="#E3D2C6"/>
<path transform="translate(1845,659)" d="m0 0h5l-4 2-53 8-39 7-48 11-24 6-3-1-1-2h-6l-2-2 44-11 31-6 64-8z" fill="#C4A48D"/>
<path transform="translate(278,1336)" d="m0 0 7 1 16 8 9 3 6 4 5 1 12 4v2l7 1 13 4 10 2 10 3 9 3 7 1v2h8l1 1 7 1 3 2 11 2h8l11 2 5 2v1h-10l-33-5-23-5-23-6-30-10-26-12-19-10z" fill="#C3A38B"/>
<path transform="translate(478,1387)" d="m0 0h29l38 1h64l5-1 17 1-1 2-37 2-27 1h-34l-48-2-8-2z" fill="#C3A48C"/>
<path transform="translate(1099,1031)" d="m0 0 10 1 2 5-2 3-23 7-50 12-4-1 17-6 27-11z" fill="#A57D60"/>
<path transform="translate(1762,1030)" d="m0 0h3v2l-20 14-15 10-16 10-13 8-7 4-4-2-1-4 9-6 6-3h3l2-2 8-6 9-3 2-2h3l5-2 5-3 1-5 7-3h3v-2l4-1 3-3z" fill="#D8C0AA"/>
<path transform="translate(1823,1185)" d="m0 0h16v1l-82 13-10 2-4-1h2v-2l-8-1v-1l49-7 25-3z" fill="#C4A58D"/>
<path transform="translate(71,1452)" d="m0 0 4 1 26 15 25 13 16 8 2 2v2l-4 1-25-13-22-13-15-10-7-5z" fill="#BE9E85"/>
<path transform="translate(1099,1031)" d="m0 0 10 1 2 5-2 3-19 6h-3v-2l2-1-5-1 1-2 8 1-8-3 2-2z" fill="#BE9E85"/>
<path transform="translate(944,1155)" d="m0 0h5l2 3v3l-14 2-31 1 1-2 29-5z" fill="#C5A78F"/>
<path transform="translate(1845,659)" d="m0 0h5l-4 2-53 8-14 2-1-2 9-1v-2l48-6z" fill="#D9C1AC"/>
<path transform="translate(1713,1199)" d="m0 0h8v1l-14 3-15 2-22 5-6 1-4-2 26-6z" fill="#C4A58D"/>
<path transform="translate(71,1452)" d="m0 0 4 1 26 15 4 2-2 4-16-10-10-7-6-4z" fill="#CBAE96"/>
<path transform="translate(1486,495)" d="m0 0 3 1 5 8-2 5h-4l-4-6-2-2 1-4h3z" fill="#D6BDA5"/>
<path transform="translate(1823,1185)" d="m0 0h16v1l-31 5-6-1-1-3z" fill="#D7BEA8"/>
<path transform="translate(143,1491)" d="m0 0 6 1 11 5v4l-4 1-15-8z" fill="#A98266"/>
<path transform="translate(585,741)" d="m0 0 3 1-1 5-4 19-3 12h-1v-9z" fill="#C5A78F"/>
<path transform="translate(409,1380)" d="m0 0 17 1 12 2 5 2v1h-10l-28-4z" fill="#C5A68E"/>
<path transform="translate(1380,422)" d="m0 0 10 1 4 1-1 5-4 1-7-1z" fill="#D7BEA7"/>
<path transform="translate(1099,1031)" d="m0 0 10 1 2 5-2 2h-9l-2-1z" fill="#9F7658"/>
<path transform="translate(612,1387)" d="m0 0h10l9 1-1 2-16 1h-12v-1l7-1z" fill="#C8AA92"/>
<path transform="translate(539,880)" d="m0 0 3 1-2 9-5-2-3-2 1-4z" fill="#C4A58D"/>
<path transform="translate(1632,922)" d="m0 0h5l-4 4-9 3-5-2 1-2z" fill="#D8C0AB"/>
<path transform="translate(1603,930)" d="m0 0h5l-3 3-8 3-2 1-6-1v-2z" fill="#D9C1AB"/>
<path transform="translate(1051,1051)" d="m0 0 3 1 2 2-20 5-4-1 17-6z" fill="#B7947A"/>
<path transform="translate(1545,831)" d="m0 0h4v2l-11 4-7 2-1-2z" fill="#C5A78F"/>
<path transform="translate(146,1494)" d="m0 0 9 3 5 2v2l-4 1-10-5z" fill="#B59177"/>
<path transform="translate(1474,972)" d="m0 0h2l-1 4-5 2-8 1-1-2z" fill="#E5D6CB"/>
<path transform="translate(257,1322)" d="m0 0 4 1 7 4v2l5 2v2l-5-2-11-8z" fill="#C5A68E"/>
<path transform="translate(71,1452)" d="m0 0 4 1 12 7-1 2-5-2-10-7z" fill="#D3B8A0"/>
<path transform="translate(1554,945)" d="m0 0h4v2l-7 3h-5l1-3z" fill="#D8BFA9"/>
<path transform="translate(96,1466)" d="m0 0 9 4-2 4-7-4z" fill="#C5A78F"/>
<path transform="translate(1084,1040)" d="m0 0 8 1 4 3-9 2v-2l2-1-5-1z" fill="#C1A189"/>
<path transform="translate(704,974)" d="m0 0 10 1 1 2h-13l-3-2z" fill="#C3A48C"/>
<path transform="translate(1475,554)" d="m0 0 4 1 1 6-5-2-3-3z" fill="#E3D2C5"/>
<path transform="translate(585,741)" d="m0 0 3 1-1 5-3 5-1-2z" fill="#C7A991"/>
<path transform="translate(1386,423)" d="m0 0 8 1-4 4h-4l-1-4z" fill="#E4D4C9"/>
<path transform="translate(67,1449)" d="m0 0 3 1h-3z" fill="#D6BCA4"/>
<path transform="translate(65,1448)" d="m0 0 2 1z" fill="#D6BCA4"/>
<path transform="translate(70,1451)" d="m0 0" fill="#D6BCA4"/>
<path transform="translate(63,1446)" d="m0 0" fill="#D6BCA4"/>
<path transform="translate(61,1445)" d="m0 0" fill="#D6BCA4"/>
</svg>
